<svg width="19" height="19" viewBox="0 0 19 19" fill="none" xmlns="http://www.w3.org/2000/svg">
<path fill-rule="evenodd" clip-rule="evenodd" d="M4.20178 10.9923C3.75423 10.9923 3.32501 10.8145 3.00854 10.4981C2.69207 10.1816 2.51428 9.75236 2.51428 9.30481C2.51428 8.85726 2.69207 8.42803 3.00854 8.11157C3.32501 7.7951 3.75423 7.61731 4.20178 7.61731C4.64934 7.61731 5.07856 7.7951 5.39503 8.11157C5.71149 8.42803 5.88928 8.85726 5.88928 9.30481C5.88928 9.75236 5.71149 10.1816 5.39503 10.4981C5.07856 10.8145 4.64934 10.9923 4.20178 10.9923ZM9.82678 10.9923C9.37923 10.9923 8.95001 10.8145 8.63354 10.4981C8.31707 10.1816 8.13928 9.75236 8.13928 9.30481C8.13928 8.85726 8.31707 8.42803 8.63354 8.11157C8.95001 7.7951 9.37923 7.61731 9.82678 7.61731C10.2743 7.61731 10.7036 7.7951 11.02 8.11157C11.3365 8.42803 11.5143 8.85726 11.5143 9.30481C11.5143 9.75236 11.3365 10.1816 11.02 10.4981C10.7036 10.8145 10.2743 10.9923 9.82678 10.9923ZM15.4518 10.9923C15.0042 10.9923 14.575 10.8145 14.2585 10.4981C13.9421 10.1816 13.7643 9.75236 13.7643 9.30481C13.7643 8.85726 13.9421 8.42803 14.2585 8.11157C14.575 7.7951 15.0042 7.61731 15.4518 7.61731C15.8993 7.61731 16.3286 7.7951 16.645 8.11157C16.9615 8.42803 17.1393 8.85726 17.1393 9.30481C17.1393 9.75236 16.9615 10.1816 16.645 10.4981C16.3286 10.8145 15.8993 10.9923 15.4518 10.9923Z" fill="#564B80"/>
</svg>
