<svg width="18" height="18" viewBox="0 0 18 18" fill="none" xmlns="http://www.w3.org/2000/svg">
<path fill-rule="evenodd" clip-rule="evenodd" d="M1.81064 5.11081C1.86173 5.05959 1.92243 5.01895 1.98925 4.99122C2.05608 4.96349 2.12772 4.94922 2.20006 4.94922C2.27241 4.94922 2.34405 4.96349 2.41087 4.99122C2.4777 5.01895 2.53839 5.05959 2.58949 5.11081L8.80046 11.3229L15.0114 5.11081C15.0626 5.05967 15.1233 5.01911 15.1901 4.99143C15.2569 4.96375 15.3285 4.94951 15.4009 4.94951C15.4732 4.94951 15.5448 4.96375 15.6116 4.99143C15.6784 5.01911 15.7391 5.05967 15.7903 5.11081C15.8414 5.16195 15.882 5.22266 15.9097 5.28948C15.9373 5.3563 15.9516 5.42791 15.9516 5.50023C15.9516 5.57256 15.9373 5.64417 15.9097 5.71099C15.882 5.77781 15.8414 5.83852 15.7903 5.88966L9.18988 12.4901C9.13879 12.5413 9.07809 12.5819 9.01127 12.6096C8.94444 12.6374 8.87281 12.6516 8.80046 12.6516C8.72811 12.6516 8.65647 12.6374 8.58965 12.6096C8.52283 12.5819 8.46213 12.5413 8.41103 12.4901L1.81064 5.88966C1.75942 5.83856 1.71878 5.77787 1.69105 5.71104C1.66332 5.64422 1.64905 5.57258 1.64905 5.50023C1.64905 5.42789 1.66332 5.35625 1.69105 5.28942C1.71878 5.2226 1.75942 5.1619 1.81064 5.11081V5.11081Z" fill="#AAB9C5"/>
</svg>
