<svg width="18" height="18" viewBox="0 0 18 18" fill="none" xmlns="http://www.w3.org/2000/svg">
<path d="M7.93557 5.32175L2.68381 11.3236C2.06403 12.0321 2.56774 13.1403 3.50837 13.1403H14.0119C14.2224 13.1404 14.4285 13.0799 14.6055 12.966C14.7825 12.8521 14.9229 12.6895 15.01 12.4978C15.097 12.3061 15.1269 12.0934 15.0961 11.8852C15.0653 11.6769 14.9752 11.4819 14.8364 11.3236L9.58469 5.32284C9.48191 5.20523 9.35515 5.11096 9.21294 5.04637C9.07072 4.98178 8.91633 4.94836 8.76013 4.94836C8.60393 4.94836 8.44954 4.98178 8.30733 5.04637C8.16511 5.11096 8.03836 5.20523 7.93557 5.32284V5.32175Z" fill="#198754"/>
</svg>
