<svg width="18" height="18" viewBox="0 0 18 18" fill="none" xmlns="http://www.w3.org/2000/svg">
<path d="M7.9357 12.1986L2.68394 6.19569C2.06415 5.48939 2.56786 4.38013 3.50849 4.38013H14.012C14.2225 4.37995 14.4286 4.44045 14.6056 4.55439C14.7827 4.66833 14.9231 4.83088 15.0101 5.02257C15.0971 5.21426 15.127 5.42697 15.0962 5.63522C15.0654 5.84348 14.9753 6.03844 14.8366 6.19678L9.58481 12.1975C9.48203 12.3152 9.35528 12.4094 9.21306 12.474C9.07084 12.5386 8.91645 12.572 8.76025 12.572C8.60406 12.572 8.44967 12.5386 8.30745 12.474C8.16523 12.4094 8.03848 12.3152 7.9357 12.1975V12.1986Z" fill="#DC3545"/>
</svg>
