<svg width="72" height="36" viewBox="0 0 72 36" fill="none" xmlns="http://www.w3.org/2000/svg">
<path d="M71.7074 7.27541C71.4188 5.59576 70.5575 4.05886 69.3807 2.83758C67.4552 0.854997 64.6399 -0.293317 61.8833 0.0651347C57.4296 0.655152 53.8832 5.12152 54.2987 9.5879C54.4002 10.7235 54.7301 11.8433 54.6873 12.9773C54.6429 14.113 54.0973 15.3485 53.0204 15.7355C51.3122 16.3525 49.761 14.5729 48.7982 13.0217C47.7641 11.3405 46.73 9.65927 45.6959 7.97962C43.699 4.73294 41.2438 1.15794 37.48 0.525095C33.9606 -0.063337 30.5711 2.19205 28.2015 4.87727C25.832 7.56248 24.0365 10.7521 21.3212 13.0503C18.0475 9.25799 16.5677 3.67027 12.0855 1.40061C9.386 0.0365855 5.9252 0.30939 3.46838 2.07627C1.01314 3.84315 -0.352465 7.03115 0.0789458 10.0336C0.423123 12.4745 1.83155 14.63 3.19557 16.684C4.86094 19.3406 6.67065 21.9259 8.40898 24.5398C9.28608 25.861 10.1616 27.1822 11.0514 28.5049C11.8856 29.7532 12.6327 31.1331 13.5938 32.2814C14.1696 32.9713 14.7723 33.6613 15.5193 34.1783C16.352 34.7525 17.3005 35.1537 18.2759 35.4123C20.2442 35.9151 22.4124 35.7438 24.2237 34.7382C25.9033 33.8183 27.196 32.3385 28.4458 30.8888C30.6568 28.3321 32.8836 25.7753 35.0962 23.2186C38.3841 27.0537 39.921 32.67 44.4746 34.8809C46.9156 36.0737 49.9608 35.9579 52.3161 34.5939C54.673 33.2156 56.267 30.6303 56.4241 27.9149C56.5541 25.7753 55.8642 23.5485 56.497 21.4945C56.9126 20.159 57.8896 19.025 59.1537 18.4207C60.9063 17.5738 62.9888 17.7895 64.8984 17.3723C69.2792 16.4254 72.483 11.699 71.7074 7.27541Z" fill="#AB96FF"/>
</svg>
